<?xml version="1.0" standalone="no"?>
<!DOCTYPE svg PUBLIC "-//W3C//DTD SVG 20010904//EN"
 "http://www.w3.org/TR/2001/REC-SVG-20010904/DTD/svg10.dtd">
<svg version="1.0" xmlns="http://www.w3.org/2000/svg"
 width="306.000000pt" height="450.000000pt" viewBox="0 0 306.000000 450.000000"
 preserveAspectRatio="xMidYMid meet">

<g transform="translate(0.000000,450.000000) scale(0.100000,-0.100000)"
fill="#000000" stroke="none">
<path d="M1390 4420 c-8 -5 -32 -10 -52 -10 -20 0 -40 -4 -43 -10 -3 -5 -17
-10 -30 -10 -13 0 -38 -8 -57 -17 -60 -30 -68 -33 -83 -33 -8 0 -15 -4 -15
-10 0 -5 -9 -10 -20 -10 -11 0 -20 -4 -20 -10 0 -5 -6 -10 -14 -10 -18 0 -76
-32 -76 -42 0 -5 -7 -8 -15 -8 -8 0 -15 -4 -15 -8 0 -5 -12 -15 -27 -23 -52
-28 -303 -272 -303 -295 0 -3 -6 -11 -12 -19 -7 -7 -22 -25 -33 -41 -11 -15
-26 -33 -32 -40 -7 -7 -13 -20 -13 -28 0 -9 -3 -16 -8 -16 -4 0 -16 -16 -26
-35 -11 -19 -23 -35 -28 -35 -4 0 -8 -9 -8 -20 0 -11 -3 -20 -7 -20 -5 0 -16
-20 -26 -45 -11 -25 -23 -45 -28 -45 -5 0 -9 -9 -9 -19 0 -11 -4 -23 -10 -26
-5 -3 -10 -15 -10 -26 0 -10 -4 -19 -10 -19 -5 0 -10 -6 -10 -13 0 -7 -11 -37
-25 -65 -14 -29 -25 -59 -25 -67 0 -8 -4 -15 -10 -15 -5 0 -10 -13 -10 -29 0
-17 -4 -33 -10 -36 -5 -3 -10 -16 -10 -29 0 -12 -4 -26 -9 -31 -13 -15 -41
-110 -41 -139 0 -14 -4 -26 -10 -26 -5 0 -10 -17 -10 -38 0 -21 -4 -42 -9 -47
-5 -6 -11 -30 -14 -55 -3 -25 -13 -83 -22 -130 -9 -47 -21 -130 -27 -185 -12
-104 -15 -569 -4 -665 13 -113 38 -276 47 -298 5 -13 9 -38 9 -57 0 -19 5 -37
10 -40 6 -3 10 -24 10 -46 0 -21 5 -39 10 -39 6 0 10 -12 10 -27 0 -16 11 -59
25 -98 13 -38 25 -78 25 -87 0 -10 5 -18 10 -18 6 0 10 -13 10 -30 0 -16 5
-30 10 -30 6 0 10 -9 10 -19 0 -11 11 -41 25 -67 14 -26 25 -53 25 -60 0 -8 5
-14 10 -14 6 0 10 -11 10 -25 0 -14 5 -25 10 -25 6 0 10 -6 10 -14 0 -18 32
-76 43 -76 4 0 7 -9 7 -20 0 -11 5 -20 10 -20 6 0 10 -9 10 -20 0 -11 5 -20
10 -20 6 0 10 -5 10 -11 0 -6 6 -17 13 -24 31 -35 37 -45 37 -60 0 -8 5 -15
10 -15 6 0 10 -7 10 -15 0 -8 3 -15 8 -15 4 0 18 -16 31 -36 14 -19 40 -52 58
-72 19 -20 41 -48 50 -62 8 -14 43 -49 77 -78 33 -29 81 -70 106 -92 24 -22
50 -40 57 -40 7 0 13 -4 13 -8 0 -5 16 -17 35 -28 19 -10 35 -22 35 -26 0 -5
11 -8 24 -8 13 0 26 -3 28 -8 5 -12 108 -62 128 -62 11 0 22 -5 25 -10 3 -6
16 -10 29 -10 12 0 26 -4 32 -9 16 -15 102 -23 254 -23 152 0 238 8 254 23 6
5 20 9 32 9 13 0 26 5 29 10 3 6 14 10 25 10 20 0 123 50 128 62 2 5 15 8 28
8 13 0 24 3 24 8 0 4 16 16 35 26 19 11 35 23 35 28 0 4 6 8 13 8 6 0 26 12
42 26 77 65 171 151 189 173 12 13 27 29 33 37 7 7 13 15 13 19 0 3 10 16 23
29 12 12 33 39 47 59 14 20 28 37 33 37 4 0 7 7 7 15 0 8 3 15 8 15 4 0 16 18
26 40 11 22 23 40 28 40 4 0 8 7 8 15 0 8 5 15 10 15 6 0 10 9 10 20 0 11 5
20 10 20 6 0 10 5 10 10 0 6 11 28 25 50 14 22 25 46 25 55 0 8 5 15 10 15 6
0 10 11 10 25 0 14 5 25 10 25 6 0 10 6 10 14 0 7 11 34 25 60 14 26 25 56 25
67 0 10 5 19 10 19 6 0 10 14 10 30 0 17 5 30 10 30 6 0 10 13 10 28 0 15 4
32 9 38 11 13 41 108 41 133 0 11 4 22 9 25 8 6 14 32 27 129 3 23 9 51 14 62
9 23 27 136 43 270 14 121 14 566 -1 690 -6 55 -18 138 -27 185 -9 47 -19 105
-22 130 -3 25 -9 49 -14 55 -5 5 -9 26 -9 47 0 21 -4 38 -10 38 -5 0 -10 12
-10 26 0 29 -28 124 -41 139 -5 5 -9 19 -9 31 0 13 -4 26 -10 29 -5 3 -10 19
-10 36 0 16 -4 29 -10 29 -5 0 -10 7 -10 15 0 14 -31 89 -71 168 -10 22 -19
45 -19 53 0 8 -4 14 -8 14 -5 0 -17 20 -28 45 -10 25 -22 45 -26 45 -4 0 -8 9
-8 20 0 11 -4 20 -8 20 -5 0 -17 16 -28 35 -10 19 -22 35 -26 35 -5 0 -8 7 -8
16 0 8 -6 21 -12 28 -7 7 -22 25 -33 40 -11 16 -26 34 -32 41 -7 8 -13 16 -13
19 0 23 -251 267 -303 295 -15 8 -27 18 -27 23 0 4 -7 8 -15 8 -8 0 -15 3 -15
8 0 10 -58 42 -76 42 -8 0 -14 5 -14 10 0 6 -9 10 -20 10 -11 0 -20 5 -20 10
0 6 -6 10 -14 10 -8 0 -29 8 -48 17 -62 31 -68 33 -91 33 -13 0 -27 4 -32 9
-16 14 -89 23 -240 27 -84 3 -146 0 -155 -6z m305 -28 c74 -12 147 -32 160
-43 5 -5 17 -9 27 -9 10 0 18 -4 18 -10 0 -5 11 -10 25 -10 14 0 25 -4 25 -10
0 -5 8 -10 18 -10 9 0 34 -11 54 -25 20 -14 42 -25 47 -25 6 0 11 -3 11 -8 0
-4 12 -13 28 -19 15 -7 41 -24 57 -38 17 -15 40 -35 53 -46 12 -10 27 -19 32
-19 6 0 10 -6 10 -13 0 -7 12 -21 27 -32 34 -26 61 -53 98 -100 17 -21 36 -44
43 -51 6 -7 12 -15 12 -19 0 -3 10 -17 23 -30 37 -40 47 -54 47 -65 0 -5 5
-10 10 -10 6 0 10 -5 10 -10 0 -12 52 -94 63 -98 4 -2 7 -12 7 -22 0 -10 4
-20 8 -22 10 -4 122 -229 122 -245 0 -6 6 -24 14 -40 8 -15 20 -41 26 -58 7
-16 16 -38 21 -47 5 -10 9 -31 9 -48 0 -16 4 -30 9 -30 5 0 11 -12 14 -27 10
-48 29 -117 38 -135 5 -10 9 -33 9 -52 0 -19 5 -38 10 -41 6 -3 10 -22 10 -42
0 -20 4 -50 9 -67 27 -88 64 -526 55 -646 -19 -278 -26 -355 -30 -362 -5 -8
-15 -78 -30 -210 -3 -27 -10 -48 -15 -48 -5 0 -9 -18 -9 -39 0 -22 -4 -43 -10
-46 -5 -3 -10 -16 -10 -28 0 -22 -25 -108 -41 -139 -5 -10 -9 -29 -9 -42 0
-14 -4 -28 -10 -31 -5 -3 -10 -17 -10 -31 0 -13 -4 -24 -9 -24 -5 0 -12 -16
-15 -35 -4 -19 -11 -35 -16 -35 -6 0 -10 -7 -10 -15 0 -16 -29 -84 -60 -145
-10 -19 -31 -60 -46 -90 -16 -30 -32 -56 -36 -58 -4 -2 -8 -10 -8 -17 0 -8 -6
-20 -12 -27 -7 -7 -19 -25 -26 -39 -8 -14 -23 -38 -35 -52 -12 -14 -31 -37
-41 -52 -11 -14 -28 -36 -38 -48 -11 -12 -28 -32 -39 -45 -10 -12 -19 -24 -19
-27 0 -8 -115 -119 -156 -150 -21 -16 -47 -37 -57 -46 -9 -9 -30 -22 -45 -30
-27 -14 -42 -24 -67 -46 -7 -7 -21 -13 -29 -13 -9 0 -16 -4 -16 -10 0 -5 -8
-10 -18 -10 -10 0 -22 -4 -28 -8 -17 -16 -135 -62 -158 -62 -12 0 -26 -4 -32
-9 -32 -31 -416 -31 -448 0 -6 5 -20 9 -33 9 -12 0 -48 11 -79 25 -31 14 -63
25 -70 25 -8 0 -14 5 -14 10 0 6 -7 10 -15 10 -20 0 -55 20 -98 55 -7 6 -24
16 -39 24 -15 8 -36 21 -45 30 -10 9 -36 30 -57 46 -52 39 -143 131 -181 180
-16 22 -34 45 -40 51 -5 6 -19 23 -30 38 -11 16 -26 34 -33 41 -6 8 -12 18
-12 24 0 6 -4 11 -10 11 -5 0 -10 7 -10 15 0 8 -4 15 -10 15 -5 0 -10 7 -10
15 0 8 -4 15 -10 15 -5 0 -10 6 -10 14 0 8 -6 21 -13 28 -7 7 -20 28 -28 46
-7 17 -17 32 -21 32 -5 0 -8 9 -8 19 0 11 -4 23 -10 26 -5 3 -16 20 -24 38 -7
18 -23 53 -35 79 -11 26 -21 55 -21 63 0 8 -4 15 -10 15 -5 0 -12 16 -16 35
-3 19 -10 35 -15 35 -5 0 -9 11 -9 24 0 14 -4 28 -10 31 -5 3 -10 17 -10 31 0
13 -4 32 -9 42 -16 32 -41 117 -41 140 0 12 -4 22 -10 22 -5 0 -10 20 -10 45
0 25 -4 45 -9 45 -5 0 -12 24 -15 53 -3 28 -9 79 -15 112 -30 184 -50 429 -45
560 8 216 33 470 55 541 5 17 9 47 9 67 0 20 5 39 10 42 6 3 10 24 10 45 0 21
4 41 9 44 5 3 11 20 14 38 10 59 31 128 39 128 5 0 8 15 8 34 0 19 5 38 10 41
6 3 10 17 10 31 0 13 5 24 10 24 6 0 10 7 10 16 0 9 7 30 16 47 31 58 34 67
34 82 0 8 5 15 10 15 6 0 10 8 10 18 0 9 11 37 25 61 14 23 25 49 25 57 0 8 5
14 10 14 6 0 10 7 10 15 0 8 5 15 10 15 6 0 10 9 10 19 0 11 3 21 8 23 10 4
62 86 62 98 0 5 5 10 10 10 6 0 10 5 10 10 0 11 10 25 47 65 13 13 23 27 23
30 0 4 6 12 13 19 6 7 26 30 42 51 37 47 64 74 98 100 15 11 27 25 27 32 0 7
4 13 10 13 5 0 20 9 32 19 69 60 83 70 107 83 14 7 28 15 31 18 3 3 16 11 30
19 73 42 113 61 131 61 10 0 19 5 19 10 0 6 7 10 15 10 8 0 23 4 33 9 34 19
121 41 159 41 21 0 45 5 53 10 17 12 163 7 255 -8z"/>
<path d="M1490 4268 c0 -29 -3 -70 -6 -90 -5 -31 -4 -38 10 -38 10 0 16 8 16
23 0 40 12 67 29 67 10 0 21 -3 25 -7 4 -4 15 -8 24 -8 13 0 18 -11 20 -47 4
-54 11 -60 30 -21 14 32 16 173 2 173 -5 0 -10 -11 -10 -25 0 -14 -10 -35 -21
-46 -18 -18 -25 -20 -40 -10 -10 6 -26 11 -34 11 -10 0 -15 10 -15 35 0 24 -5
35 -15 35 -11 0 -15 -13 -15 -52z"/>
<path d="M1272 4281 c-18 -15 -22 -29 -22 -75 0 -73 28 -106 90 -106 22 0 40
5 40 10 0 6 5 10 11 10 14 0 38 30 39 48 0 6 -7 12 -15 12 -8 0 -15 -7 -15
-16 0 -47 -73 -60 -108 -19 -28 32 -30 95 -4 118 22 20 63 22 80 5 9 -9 12 -7
12 10 0 19 -5 22 -43 22 -29 0 -52 -7 -65 -19z"/>
<path d="M1732 4267 c-7 -18 -12 -43 -12 -55 0 -12 -4 -22 -10 -22 -5 0 -10
-16 -10 -35 0 -19 5 -35 10 -35 6 0 10 14 10 30 0 17 5 30 10 30 6 0 10 11 10
25 0 14 4 25 9 25 13 0 41 -58 41 -86 0 -13 5 -26 10 -29 6 -3 10 -15 10 -26
0 -40 34 -14 46 36 4 17 10 35 14 40 4 6 10 27 13 48 4 28 2 37 -9 37 -8 0
-14 -9 -14 -21 0 -26 -29 -89 -41 -89 -5 0 -9 14 -9 30 0 17 -4 30 -10 30 -5
0 -10 9 -10 20 0 24 -27 80 -38 80 -5 0 -13 -15 -20 -33z"/>
<path d="M1110 4220 c0 -5 -9 -10 -20 -10 -11 0 -20 -4 -20 -10 0 -5 -11 -12
-25 -16 -24 -6 -37 -44 -15 -44 5 0 12 -11 16 -25 3 -14 10 -25 15 -25 5 0 9
-9 9 -20 0 -11 3 -20 8 -20 4 0 12 -10 17 -22 12 -28 38 -34 58 -13 9 8 23 15
31 15 9 0 16 4 16 9 0 5 10 12 23 16 17 6 19 8 6 12 -9 2 -33 -5 -53 -16 -45
-26 -66 -27 -66 -3 0 10 -5 23 -11 29 -8 8 -5 13 10 18 12 3 21 11 21 16 0 5
9 9 19 9 10 0 22 7 25 16 8 20 -2 33 -12 18 -4 -5 -23 -17 -42 -26 -33 -16
-35 -16 -53 3 -18 20 -18 21 5 39 12 11 28 24 35 30 7 5 17 10 23 10 5 0 10 5
10 10 0 6 -7 10 -15 10 -8 0 -15 -4 -15 -10z"/>
<path d="M1970 4172 c0 -5 -11 -15 -25 -22 -14 -7 -25 -19 -25 -27 0 -7 -6
-22 -12 -33 -10 -15 -10 -22 0 -32 6 -6 12 -18 12 -26 0 -25 43 -51 86 -52 57
0 94 41 94 105 0 61 -32 95 -90 95 -22 0 -40 -4 -40 -8z m80 -22 c0 -5 7 -10
15 -10 11 0 15 -12 15 -45 0 -25 -4 -45 -10 -45 -5 0 -10 -5 -10 -11 0 -18
-32 -38 -62 -39 -31 0 -84 58 -68 74 6 6 10 16 10 24 0 16 24 42 39 42 6 0 11
5 11 10 0 6 14 10 30 10 17 0 30 -4 30 -10z"/>
<path d="M914 4096 c-11 -11 -30 -28 -42 -36 -12 -8 -22 -24 -21 -35 0 -11 3
-14 6 -7 2 6 11 12 18 12 7 0 15 6 18 13 4 11 42 -26 106 -103 16 -20 20 -22
21 -8 0 17 -7 27 -62 91 -31 36 -36 62 -12 71 8 3 12 10 9 16 -9 14 -17 11
-41 -14z"/>
<path d="M1480 4037 c-67 -8 -168 -35 -185 -49 -5 -4 -17 -8 -27 -8 -10 0 -18
-4 -18 -10 0 -5 -7 -10 -16 -10 -15 0 -100 -56 -132 -87 -7 -7 -16 -13 -20
-13 -12 0 -97 -84 -127 -125 -17 -22 -38 -47 -47 -56 -10 -9 -18 -20 -18 -23
0 -4 -6 -14 -12 -21 -30 -33 -38 -45 -38 -55 0 -5 -4 -10 -10 -10 -5 0 -10 -9
-10 -20 0 -11 -4 -20 -9 -20 -4 0 -34 -53 -65 -117 -32 -65 -64 -131 -72 -146
-8 -16 -14 -37 -14 -48 0 -10 -4 -19 -10 -19 -5 0 -10 -13 -10 -29 0 -17 -4
-33 -10 -36 -5 -3 -10 -16 -10 -29 0 -12 -4 -26 -9 -31 -13 -15 -45 -142 -57
-225 -3 -19 -9 -44 -14 -55 -5 -11 -11 -42 -14 -70 -2 -27 -12 -115 -21 -195
-27 -240 -19 -491 25 -785 5 -33 12 -80 16 -105 3 -25 10 -49 15 -54 5 -6 9
-22 9 -38 0 -15 4 -37 9 -50 5 -13 17 -50 27 -83 9 -33 21 -64 26 -69 4 -6 8
-23 8 -38 0 -15 5 -28 10 -28 6 0 10 -13 10 -29 0 -16 3 -31 8 -33 10 -4 42
-75 42 -93 0 -8 5 -15 10 -15 6 0 10 -6 10 -14 0 -7 16 -40 35 -72 19 -32 35
-64 35 -71 0 -7 5 -13 10 -13 6 0 10 -6 10 -12 0 -7 11 -26 25 -42 14 -16 25
-32 25 -35 0 -3 10 -18 23 -33 13 -15 32 -39 43 -54 28 -40 114 -125 159 -158
22 -17 42 -32 45 -35 3 -4 17 -12 32 -20 16 -8 28 -18 28 -23 0 -4 8 -8 18 -8
10 0 22 -4 28 -10 18 -18 149 -60 186 -60 20 0 40 -4 43 -10 3 -5 33 -10 65
-10 32 0 62 5 65 10 3 6 23 10 43 10 40 0 145 35 203 68 75 42 84 48 108 70
14 12 29 22 33 22 11 0 119 109 153 155 17 22 38 49 48 59 9 11 17 23 17 27 0
4 7 14 15 22 8 9 29 42 46 74 18 32 37 65 43 73 21 28 36 60 36 75 0 8 5 15
10 15 6 0 10 7 10 15 0 18 32 89 43 93 4 2 7 17 7 33 0 16 5 29 10 29 6 0 10
13 10 28 0 15 4 32 8 38 5 5 17 36 26 69 10 33 22 70 27 83 5 13 9 35 9 50 0
16 4 32 9 38 5 5 12 29 15 54 4 25 11 72 16 105 5 33 18 152 29 265 18 175 19
226 10 350 -14 196 -37 385 -58 483 -6 26 -15 66 -20 90 -11 50 -29 115 -40
142 -16 39 -31 92 -31 108 0 9 -4 17 -10 17 -5 0 -10 8 -10 18 0 9 -11 40 -25
67 -13 28 -25 58 -25 67 0 9 -3 18 -7 20 -5 2 -26 38 -48 81 -22 42 -43 77
-47 77 -4 0 -8 9 -8 20 0 11 -4 20 -10 20 -5 0 -10 5 -10 11 0 6 -6 17 -12 24
-28 31 -38 44 -38 51 0 4 -8 14 -18 23 -9 9 -30 34 -47 56 -32 44 -68 80 -110
110 -15 11 -32 25 -39 30 -36 33 -116 85 -130 85 -9 0 -16 5 -16 10 0 6 -8 10
-18 10 -10 0 -22 4 -27 8 -15 13 -114 40 -180 49 -33 4 -89 4 -125 0z m150
-67 c0 -5 20 -10 45 -10 25 0 45 -4 45 -10 0 -5 8 -10 18 -10 18 0 82 -27 92
-39 3 -3 19 -13 35 -21 17 -8 32 -17 35 -20 3 -3 23 -18 45 -35 45 -33 165
-152 165 -163 0 -4 14 -23 30 -42 16 -19 30 -41 30 -47 0 -7 5 -13 10 -13 6 0
10 -5 10 -10 0 -10 8 -22 38 -55 6 -7 12 -21 12 -29 0 -9 5 -16 10 -16 6 0 10
-7 10 -16 0 -8 11 -32 25 -52 14 -20 25 -45 25 -54 0 -10 5 -18 10 -18 6 0 10
-11 10 -25 0 -14 5 -25 10 -25 6 0 10 -9 10 -19 0 -11 5 -23 10 -26 6 -3 10
-19 10 -35 0 -15 3 -30 8 -32 10 -4 42 -101 42 -127 0 -11 5 -21 10 -21 6 0
10 -18 10 -39 0 -22 5 -43 10 -46 6 -3 10 -19 10 -34 0 -15 4 -41 10 -57 12
-36 27 -128 42 -264 28 -253 4 -784 -41 -903 -6 -16 -11 -41 -11 -57 0 -16 -4
-32 -10 -35 -5 -3 -10 -24 -10 -46 0 -21 -4 -39 -10 -39 -5 0 -10 -13 -10 -29
0 -16 -7 -42 -15 -57 -8 -16 -15 -37 -15 -46 0 -9 -4 -20 -10 -23 -6 -3 -10
-15 -10 -26 0 -10 -5 -28 -10 -39 -5 -11 -14 -29 -20 -40 -5 -11 -10 -27 -10
-35 0 -8 -4 -15 -10 -15 -5 0 -10 -7 -10 -15 0 -17 -51 -118 -62 -123 -5 -2
-8 -12 -8 -22 0 -10 -3 -20 -7 -22 -11 -4 -63 -86 -63 -98 0 -5 -4 -10 -8 -10
-4 0 -15 -12 -24 -28 -9 -15 -30 -42 -47 -60 -17 -17 -31 -36 -31 -42 0 -5 -4
-10 -10 -10 -5 0 -35 -25 -67 -55 -32 -30 -63 -55 -70 -55 -6 0 -13 -3 -15 -7
-6 -14 -87 -63 -103 -63 -8 0 -15 -4 -15 -10 0 -5 -9 -10 -20 -10 -11 0 -28
-4 -38 -9 -79 -40 -259 -41 -367 -1 -73 27 -143 62 -165 82 -11 10 -22 18 -25
18 -5 0 -34 24 -93 77 -20 18 -40 33 -44 33 -4 0 -8 5 -8 10 0 6 -14 25 -31
42 -17 18 -38 45 -47 60 -9 16 -20 28 -24 28 -4 0 -8 9 -8 20 0 11 -4 20 -8
20 -5 0 -17 16 -28 35 -10 19 -22 35 -26 35 -5 0 -8 9 -8 19 0 11 -3 21 -7 23
-12 5 -63 106 -63 123 0 8 -4 15 -10 15 -5 0 -10 7 -10 15 0 8 -4 24 -10 35
-5 11 -14 29 -20 40 -5 11 -10 29 -10 39 0 11 -4 23 -10 26 -5 3 -10 14 -10
23 0 9 -7 30 -15 46 -8 15 -15 41 -15 57 0 16 -4 29 -10 29 -5 0 -10 12 -10
27 0 15 -4 40 -9 57 -51 172 -74 377 -75 671 0 248 24 510 53 588 6 16 11 41
11 57 0 16 5 32 10 35 6 3 10 24 10 46 0 21 5 39 10 39 6 0 10 10 10 21 0 26
32 123 43 127 4 2 7 17 7 32 0 16 5 32 10 35 6 3 10 15 10 26 0 10 5 19 10 19
6 0 10 11 10 25 0 14 5 25 10 25 6 0 10 6 10 12 0 16 53 122 63 126 4 2 7 10
7 18 0 14 7 24 38 59 6 7 12 18 12 24 0 6 5 11 10 11 6 0 10 7 10 15 0 8 14
29 30 47 16 17 30 34 30 39 0 11 119 130 165 164 22 16 42 32 45 35 3 3 19 12
35 20 17 8 32 18 35 21 10 12 74 39 92 39 10 0 18 5 18 10 0 6 20 10 44 10 25
0 48 5 51 10 3 6 44 10 91 10 49 0 84 -4 84 -10z"/>
<path d="M1506 3855 c-9 -19 -24 -35 -32 -35 -8 0 -22 -4 -32 -9 -9 -5 -39
-19 -67 -32 -50 -24 -117 -68 -123 -81 -2 -5 -8 -8 -14 -8 -5 0 -23 -15 -40
-32 -17 -18 -52 -56 -79 -85 -27 -28 -49 -55 -49 -59 0 -4 -11 -22 -25 -40
-14 -18 -25 -37 -25 -43 0 -6 -4 -11 -10 -11 -5 0 -10 -8 -10 -17 0 -17 -49
-53 -72 -53 -15 0 -46 -38 -69 -82 -22 -44 -24 -92 -6 -139 18 -45 17 -49 -21
-88 -40 -42 -48 -72 -34 -120 11 -33 9 -40 -21 -83 -17 -27 -35 -48 -39 -48
-5 0 -8 -10 -8 -21 0 -20 64 -89 82 -89 4 0 8 -340 8 -755 l0 -755 238 -2
c130 -2 454 -2 720 0 l482 2 0 751 c0 637 2 753 14 765 8 8 17 14 21 14 12 0
55 50 55 65 0 8 -16 32 -35 52 -19 20 -35 43 -35 49 0 7 -6 15 -12 17 -10 4
-10 8 1 15 18 13 20 104 3 110 -7 2 -12 8 -12 14 0 13 -26 38 -39 38 -15 0
-14 11 5 83 l17 62 -29 63 c-16 34 -34 62 -41 62 -7 0 -13 3 -13 8 0 4 -17 15
-38 25 -24 12 -43 31 -55 56 -10 21 -30 51 -43 66 -13 15 -24 32 -24 36 0 14
-173 185 -207 205 -18 10 -33 22 -33 26 0 4 -9 8 -20 8 -11 0 -20 5 -20 10 0
6 -9 10 -20 10 -11 0 -20 5 -20 10 0 6 -11 10 -25 10 -14 0 -25 5 -25 10 0 6
-9 10 -20 10 -13 0 -26 12 -37 35 -9 20 -24 35 -34 35 -9 0 -24 -15 -33 -35z
m54 -85 c24 -33 68 -60 100 -60 11 0 20 -4 20 -10 0 -5 6 -10 14 -10 22 0 87
-38 131 -76 22 -18 43 -34 47 -34 5 0 8 -5 8 -11 0 -7 8 -19 18 -28 27 -23 82
-102 82 -116 0 -12 -22 -10 -137 15 -27 6 -102 18 -168 26 -102 14 -138 15
-240 5 -110 -12 -146 -17 -245 -41 -77 -19 -100 -20 -100 -5 0 8 4 15 8 15 4
0 16 15 27 32 10 18 28 43 40 54 11 12 27 30 37 40 44 51 147 124 173 124 8 0
15 5 15 10 0 6 14 10 30 10 17 0 30 4 30 9 0 5 10 11 22 13 12 2 28 16 37 35
9 18 19 33 23 33 4 0 16 -14 28 -30z m140 -365 c30 -3 62 -9 70 -12 15 -7 104
-29 153 -40 15 -3 27 -9 27 -14 0 -5 15 -9 34 -9 19 0 38 -4 41 -10 3 -5 17
-10 31 -10 13 0 24 -4 24 -10 0 -5 6 -10 14 -10 15 0 56 -45 56 -61 0 -12 -37
-11 -45 1 -3 6 -17 10 -30 10 -13 0 -27 5 -30 10 -3 6 -19 10 -34 10 -15 0
-31 3 -34 6 -12 12 -112 43 -139 44 -16 0 -28 5 -28 10 0 6 -26 10 -59 10 -33
0 -63 5 -66 10 -4 6 -65 10 -150 10 -85 0 -146 -4 -150 -10 -3 -5 -31 -10 -61
-10 -30 0 -54 -4 -54 -10 0 -5 -11 -10 -25 -10 -25 0 -173 -44 -207 -61 -10
-5 -27 -9 -37 -9 -11 0 -23 -4 -26 -10 -10 -16 -45 -12 -45 6 0 26 64 74 100
74 11 0 20 5 20 10 0 6 14 10 30 10 17 0 38 4 48 9 9 5 44 17 77 25 33 9 74
21 91 26 17 6 50 10 75 11 24 0 53 4 64 9 19 9 154 6 265 -5z m354 -211 c24
-25 35 -72 20 -87 -11 -10 -34 5 -34 22 0 41 -6 41 -507 41 l-483 0 -6 -30
c-6 -29 -9 -32 -36 -34 -24 -2 -8 67 20 91 l27 23 486 0 486 0 27 -26z m-471
-56 c12 -7 24 -16 27 -19 3 -3 26 -17 51 -31 82 -46 94 -53 99 -59 3 -4 15 -9
28 -13 12 -4 22 -12 22 -17 0 -5 7 -9 15 -9 8 0 15 -4 15 -10 0 -5 9 -10 20
-10 11 0 20 -4 20 -10 0 -5 5 -10 12 -10 6 0 26 -11 44 -25 18 -14 37 -25 43
-25 6 0 11 -4 11 -10 0 -20 32 -10 61 19 34 34 37 63 9 93 -15 16 -17 25 -9
35 16 18 25 16 49 -9 24 -26 26 -73 6 -140 -13 -42 -13 -48 3 -62 10 -9 23
-16 29 -16 7 0 12 -4 12 -10 0 -5 6 -10 13 -10 8 0 22 -9 32 -20 10 -11 13
-20 7 -20 -7 0 -12 -7 -12 -16 0 -12 -10 -10 -52 13 -29 15 -55 30 -58 33 -3
3 -18 12 -35 20 -16 8 -32 17 -35 21 -3 3 -27 18 -55 33 -27 16 -70 40 -95 54
-25 14 -46 29 -48 34 -2 4 -12 8 -23 8 -10 0 -19 5 -19 10 0 6 -7 10 -15 10
-8 0 -15 5 -15 10 0 6 -9 10 -20 10 -11 0 -20 4 -20 10 0 5 -11 12 -25 16 -14
3 -25 10 -25 14 0 5 -16 14 -35 21 -19 7 -35 17 -35 21 0 4 -16 8 -34 8 -33 0
-156 -62 -164 -82 -2 -4 -12 -8 -23 -8 -10 0 -19 -3 -19 -8 0 -4 -15 -13 -32
-21 -18 -8 -35 -17 -38 -21 -3 -4 -26 -19 -52 -33 -27 -15 -69 -39 -95 -54
-27 -14 -50 -29 -53 -33 -3 -4 -20 -13 -37 -21 -18 -8 -33 -17 -33 -21 0 -5
-9 -8 -20 -8 -11 0 -20 -4 -20 -10 0 -5 -11 -12 -25 -16 -14 -3 -25 -10 -25
-15 0 -5 -4 -9 -10 -9 -5 0 -10 6 -10 14 0 8 -6 16 -12 18 -17 6 14 38 36 38
9 0 16 3 16 8 0 4 10 12 23 17 23 11 23 8 11 135 -5 47 -2 58 16 78 24 25 33
27 49 9 8 -10 6 -19 -9 -35 -21 -22 -28 -72 -10 -72 6 0 10 -6 10 -13 0 -8 11
-19 24 -26 21 -12 29 -10 67 16 24 15 46 31 47 36 2 4 12 7 23 7 10 0 19 4 19
8 0 5 16 14 35 22 19 8 35 16 35 20 0 3 25 19 55 35 30 15 55 32 55 37 0 4 6
8 14 8 18 0 76 32 76 43 0 4 7 7 15 7 8 0 15 5 15 10 0 14 56 12 83 -2z m-20
-232 c21 -16 22 -62 1 -70 -25 -10 -42 -7 -58 10 -20 20 -20 25 2 52 20 25 30
27 55 8z m611 -252 c14 -6 16 -77 16 -710 l0 -704 -650 0 -650 0 0 703 c0 387
3 707 7 710 8 9 1256 9 1277 1z"/>
<path d="M1160 2610 c0 -11 5 -20 10 -20 6 0 10 -9 10 -19 0 -11 5 -23 10 -26
6 -3 10 -15 10 -26 0 -10 4 -19 10 -19 5 0 12 -11 16 -25 6 -26 44 -37 44 -13
0 16 52 121 64 129 13 10 -1 39 -18 39 -16 0 -46 -42 -46 -65 0 -32 -37 -15
-55 25 -20 44 -55 56 -55 20z"/>
<path d="M1408 2554 c-4 -78 -16 -101 -48 -84 -9 5 -22 5 -30 0 -21 -13 8 -35
53 -38 58 -3 67 12 67 112 0 78 -2 86 -19 86 -16 0 -19 -9 -23 -76z"/>
<path d="M1556 2614 c-9 -23 -8 -24 23 -24 33 0 40 -16 35 -76 -3 -45 16 -77
40 -68 13 5 16 21 16 75 l0 69 35 0 c19 0 35 4 35 8 0 23 -29 32 -101 32 -61
0 -78 -3 -83 -16z"/>
<path d="M1802 2618 c-7 -7 -12 -42 -12 -89 0 -63 3 -78 17 -83 24 -10 33 11
33 86 0 91 -10 114 -38 86z"/>
<path d="M1000 1966 c0 -490 3 -625 13 -628 10 -3 1033 -2 1060 1 4 1 7 282 7
626 l0 625 -45 0 -45 0 0 -595 0 -595 -450 0 -450 0 0 595 0 595 -45 0 -45 0
0 -624z"/>
<path d="M1495 2470 c-3 -5 -2 -17 3 -27 9 -15 11 -14 20 4 15 27 -7 49 -23
23z"/>
<path d="M1724 2465 c-9 -23 5 -37 22 -21 18 18 18 22 -1 30 -9 3 -18 -1 -21
-9z"/>
<path d="M1880 2461 c0 -15 6 -21 21 -21 14 0 19 5 17 17 -5 26 -38 29 -38 4z"/>
<path d="M1467 2394 c-3 -3 -73 -5 -156 -5 l-151 2 0 -414 c0 -439 2 -455 48
-477 13 -5 53 -10 90 -10 39 -1 77 -7 92 -15 14 -8 37 -14 53 -15 15 0 27 -4
27 -10 0 -5 9 -10 19 -10 11 0 23 -4 26 -10 3 -5 15 -10 26 -10 10 0 19 5 19
10 0 6 8 10 18 10 10 0 22 3 25 6 18 18 119 43 175 44 41 0 71 6 88 16 54 36
54 40 54 484 l0 410 -223 0 c-123 0 -226 -3 -230 -6z m419 -15 c11 -9 14 -42
14 -140 0 -70 -4 -130 -9 -134 -13 -7 -61 38 -61 57 0 9 -13 18 -30 22 -19 3
-34 14 -39 28 -9 23 -9 23 -16 -3 -11 -43 -3 -74 20 -74 19 0 20 -7 20 -188 0
-249 -18 -252 -25 -5 -3 110 -8 176 -13 166 -10 -19 -2 -351 8 -368 3 -5 13
-10 21 -10 8 0 14 -6 14 -14 0 -19 -17 -29 -25 -16 -3 5 -13 10 -21 10 -28 0
-47 28 -39 58 12 48 17 92 12 92 -19 0 -58 -26 -62 -42 -9 -26 -43 -23 -47 4
-5 34 -38 35 -64 3 l-21 -27 -7 64 c-7 63 -2 98 15 98 5 0 9 -7 9 -15 0 -29
17 -15 30 26 16 46 12 52 -52 69 -21 6 -38 14 -38 18 1 20 20 31 60 33 57 3
90 -17 90 -54 0 -45 41 -107 72 -107 17 0 18 11 18 146 0 110 3 149 14 159 9
9 12 28 9 57 -7 62 19 92 82 96 26 2 53 -2 61 -9z m-326 -33 c0 -14 5 -28 11
-32 16 -9 -10 -24 -43 -24 -27 0 -28 -2 -28 -55 0 -42 -3 -55 -15 -55 -8 0
-15 5 -15 10 0 6 -4 10 -10 10 -5 0 -10 -9 -10 -20 0 -11 7 -20 15 -20 8 0 15
-5 15 -10 0 -6 -7 -13 -15 -16 -19 -8 -21 -90 -2 -97 6 -3 2 -6 -10 -6 -19 -1
-23 4 -23 29 0 39 -16 39 -24 0 -4 -24 -12 -32 -36 -36 -21 -5 -30 -12 -30
-25 0 -11 -7 -19 -15 -19 -12 0 -15 16 -15 80 0 64 3 80 15 80 18 0 20 31 3
48 -9 9 -9 12 0 12 7 0 12 9 12 20 0 13 9 22 28 26 38 9 42 13 35 30 -3 9 -12
13 -21 9 -8 -3 -18 -1 -22 5 -21 34 -69 -43 -65 -105 11 -160 5 -265 -16 -265
-5 0 -9 -7 -9 -15 0 -8 -4 -15 -10 -15 -5 0 -10 -13 -10 -30 0 -16 5 -30 10
-30 6 0 10 14 10 30 0 17 5 30 10 30 15 0 12 -67 -2 -74 -10 -5 -10 -7 0 -12
6 -3 12 -21 12 -40 0 -27 -4 -34 -19 -34 -11 0 -21 4 -23 9 -5 15 -40 17 -45
4 -3 -8 3 -13 14 -13 11 0 29 -9 42 -21 l22 -21 18 21 c11 13 30 21 49 21 26
0 29 -3 25 -21 -5 -19 -4 -20 15 -10 11 6 24 16 27 21 10 16 34 12 64 -10 28
-19 28 -19 51 2 16 15 25 18 28 10 2 -7 9 -12 15 -12 25 0 36 -41 38 -130 1
-98 1 -99 -60 -132 -19 -10 -25 -10 -28 0 -3 6 -10 12 -18 12 -7 0 -18 6 -24
14 -7 8 -52 18 -114 26 -56 6 -110 16 -119 21 -10 5 -25 9 -33 9 -8 0 -15 9
-15 20 0 11 -4 20 -10 20 -5 0 -10 16 -10 35 0 19 5 35 10 35 6 0 10 -4 10
-10 0 -5 7 -10 15 -10 8 0 15 -4 15 -10 0 -5 9 -10 19 -10 11 0 23 -4 26 -10
3 -5 19 -10 36 -10 25 0 29 4 29 28 0 23 -7 31 -35 42 -19 8 -35 20 -35 28 0
14 -30 13 -72 -3 -14 -5 -18 -2 -18 13 0 12 5 24 10 27 7 4 7 12 0 25 -6 11
-10 137 -10 319 l0 300 63 4 c34 2 119 4 190 5 l127 2 0 -24z m160 -6 c0 -15
-7 -20 -27 -20 -16 -1 -45 -3 -65 -6 -22 -3 -38 -1 -38 4 0 6 -3 17 -6 26 -5
14 4 16 65 16 64 0 71 -2 71 -20z m180 -490 c0 -115 -3 -211 -7 -213 -12 -5
-53 42 -43 48 6 4 7 77 3 178 -5 155 -4 174 11 190 10 9 22 15 27 12 5 -4 9
-99 9 -215z m-450 120 c0 -5 -5 -10 -11 -10 -5 0 -7 5 -4 10 3 6 8 10 11 10 2
0 4 -4 4 -10z m0 -82 c0 -16 -3 -19 -11 -11 -6 6 -8 16 -5 22 11 17 16 13 16
-11z m-70 -78 c0 -5 -2 -10 -4 -10 -3 0 -8 5 -11 10 -3 6 -1 10 4 10 6 0 11
-4 11 -10z m320 0 c0 -5 -7 -10 -15 -10 -8 0 -15 5 -15 10 0 6 7 10 15 10 8 0
15 -4 15 -10z m-22 -52 c-5 -32 -28 -35 -28 -4 0 17 5 26 16 26 10 0 14 -7 12
-22z m-154 -27 c-10 -10 -20 -14 -22 -10 -2 5 -10 9 -18 9 -8 0 -14 5 -14 10
0 6 17 10 37 10 36 0 36 0 17 -19z m139 -93 c6 -4 8 -10 3 -15 -15 -15 -41 51
-28 71 4 6 9 -2 10 -19 2 -16 9 -33 15 -37z m167 -8 c0 -5 -4 -10 -10 -10 -5
0 -10 5 -10 10 0 6 5 10 10 10 6 0 10 -4 10 -10z m-130 -40 c0 -14 33 -12 49
3 11 10 14 10 18 0 3 -7 13 -13 24 -13 10 0 19 -6 19 -14 0 -8 6 -16 12 -18
10 -4 9 -9 -3 -20 -10 -11 -40 -17 -90 -19 l-74 -4 -3 33 c-2 19 -1 40 2 48 6
16 46 19 46 4z m195 0 c3 -5 1 -10 -4 -10 -6 0 -11 -7 -11 -15 0 -9 -9 -15
-25 -15 -20 0 -25 5 -25 25 0 21 5 25 29 25 17 0 33 -4 36 -10z"/>
<path d="M1410 2170 c0 -5 5 -10 10 -10 6 0 10 5 10 10 0 6 -4 10 -10 10 -5 0
-10 -4 -10 -10z"/>
<path d="M1430 1655 c0 -30 5 -55 10 -55 6 0 10 5 10 10 0 6 9 10 20 10 11 0
20 -4 20 -10 0 -5 -4 -10 -10 -10 -5 0 -10 -7 -10 -15 0 -8 6 -15 14 -15 21 0
38 26 34 52 -2 19 -8 22 -35 20 -32 -3 -33 -2 -33 32 0 20 -4 36 -10 36 -5 0
-10 -25 -10 -55z"/>
<path d="M1545 1650 c3 -5 8 -10 11 -10 2 0 4 5 4 10 0 6 -5 10 -11 10 -5 0
-7 -4 -4 -10z"/>
<path d="M1540 1595 c0 -14 -5 -25 -10 -25 -6 0 -5 -8 2 -20 25 -40 58 -13 50
41 -6 38 -42 42 -42 4z"/>
<path d="M1490 1540 c0 -5 7 -10 15 -10 8 0 15 5 15 10 0 6 -7 10 -15 10 -8 0
-15 -4 -15 -10z"/>
<path d="M1045 1047 c-4 -18 -5 -49 -3 -68 3 -32 6 -34 42 -37 21 -2 43 1 49
7 8 8 5 11 -10 11 -28 0 -53 10 -53 21 0 5 14 9 30 9 17 0 30 5 30 10 0 6 -7
10 -16 10 -20 0 -47 27 -39 40 3 5 22 10 41 10 21 0 33 4 29 10 -3 6 -26 10
-50 10 -42 0 -44 -2 -50 -33z"/>
<path d="M1192 1068 c-17 -17 -15 -58 3 -58 8 0 15 -4 15 -10 0 -5 9 -10 20
-10 11 0 20 -7 20 -15 0 -8 -9 -15 -20 -15 -11 0 -23 7 -26 15 -9 22 -24 18
-24 -5 0 -12 10 -24 24 -30 29 -11 66 -2 66 15 0 7 6 15 12 17 17 6 -6 29 -50
52 -38 20 -41 36 -7 36 14 0 25 -4 25 -10 0 -5 5 -10 10 -10 6 0 10 6 10 14 0
25 -56 36 -78 14z"/>
<path d="M1300 1071 c0 -5 9 -11 20 -14 17 -4 20 -14 20 -61 0 -59 19 -79 22
-23 2 59 14 87 35 87 8 0 11 5 8 10 -8 12 -105 13 -105 1z"/>
<path d="M1430 1010 l0 -70 39 0 c64 0 71 6 71 62 0 60 -16 77 -72 78 l-38 0
0 -70z m76 36 c22 -23 18 -73 -7 -79 -36 -9 -49 2 -49 43 0 47 27 64 56 36z"/>
<path d="M1658 1061 c-32 -19 -38 -46 -9 -36 17 5 20 0 23 -37 2 -24 8 -42 13
-41 12 3 19 113 8 123 -4 4 -20 0 -35 -9z"/>
<path d="M1752 1068 c-7 -7 -12 -36 -12 -65 0 -71 33 -89 83 -45 21 19 22 32
2 32 -11 0 -15 12 -15 45 0 40 -2 45 -23 45 -13 0 -28 -5 -35 -12z m38 -20 c0
-7 -4 -19 -9 -26 -6 -11 -9 -9 -14 7 -2 11 -2 22 1 25 10 10 22 6 22 -6z m10
-65 c-1 -13 -30 -48 -30 -36 0 6 -3 18 -6 27 -4 12 0 16 15 16 12 0 21 -3 21
-7z"/>
<path d="M1865 1070 c-3 -5 -8 -34 -10 -65 -4 -61 11 -80 51 -65 25 10 40 40
24 50 -6 4 -10 20 -8 36 1 16 -1 35 -6 42 -9 14 -42 16 -51 2z m35 -22 c0 -7
-5 -20 -10 -28 -8 -12 -10 -9 -10 13 0 15 5 27 10 27 6 0 10 -6 10 -12z m10
-65 c0 -5 -7 -16 -14 -26 -13 -17 -14 -16 -19 2 -3 11 -2 22 1 25 8 9 32 7 32
-1z"/>
<path d="M1966 1072 c-3 -6 6 -13 21 -16 19 -5 23 -10 14 -19 -6 -6 -11 -23
-11 -38 0 -15 -6 -29 -12 -32 -7 -2 -10 -8 -6 -12 14 -15 38 5 38 30 0 15 7
33 15 42 24 24 14 48 -22 51 -17 2 -34 -1 -37 -6z"/>
<path d="M2130 3988 c-30 -33 -53 -68 -52 -77 4 -16 51 -61 65 -61 13 0 8 10
-18 36 -14 14 -25 27 -25 31 0 3 17 22 38 43 41 41 72 78 72 85 0 19 -33 -4
-80 -57z"/>
<path d="M730 3902 c0 -4 12 -16 27 -27 14 -11 39 -32 56 -46 16 -15 35 -32
43 -38 14 -12 34 -15 34 -5 0 7 -77 84 -85 84 -3 0 -15 9 -27 20 -22 20 -48
27 -48 12z"/>
<path d="M2285 3900 c-3 -5 -14 -10 -23 -10 -24 0 -52 -50 -52 -92 0 -54 35
-88 90 -88 51 1 79 19 104 69 16 31 16 33 -4 65 -33 54 -97 85 -115 56z m66
-26 c9 -3 22 -16 29 -29 35 -66 -75 -152 -128 -98 -34 34 -11 123 32 123 8 0
18 5 21 11 4 5 12 8 18 5 7 -4 19 -9 28 -12z"/>
<path d="M640 3770 c0 -16 5 -30 10 -30 6 0 10 -5 10 -11 0 -6 6 -17 13 -24
26 -30 37 -44 37 -50 0 -3 9 -15 20 -27 17 -19 20 -19 20 -5 0 10 -6 27 -12
38 -10 17 -10 23 0 26 6 3 12 13 12 23 0 21 19 30 66 30 21 0 33 4 29 10 -3 6
-17 10 -30 10 -13 0 -27 5 -30 10 -3 6 -28 10 -56 10 -27 0 -49 5 -49 10 0 6
-9 10 -20 10 -16 0 -20 -7 -20 -30z m98 -16 c10 -3 10 -7 0 -24 -18 -29 -44
-25 -56 8 -9 27 -9 29 17 25 14 -3 32 -6 39 -9z"/>
<path d="M2400 3700 c0 -5 -5 -10 -11 -10 -15 0 -39 -26 -39 -42 0 -8 -5 -19
-12 -26 -9 -9 -9 -15 0 -24 7 -7 12 -19 12 -27 1 -9 9 -26 19 -38 22 -27 74
-31 97 -9 16 17 19 36 4 36 -5 0 -10 9 -10 20 0 11 -4 20 -10 20 -5 0 -10 -16
-10 -35 0 -29 -4 -35 -21 -35 -31 0 -50 26 -51 69 0 39 18 71 41 71 6 0 11 5
11 10 0 14 52 12 73 -4 9 -7 17 -18 17 -25 0 -6 5 -11 10 -11 6 0 10 -9 10
-20 0 -11 -4 -20 -10 -20 -5 0 -10 -4 -10 -10 0 -5 9 -10 20 -10 16 0 20 7 20
30 0 17 -4 30 -10 30 -5 0 -10 6 -10 13 0 26 -49 57 -90 57 -22 0 -40 -4 -40
-10z"/>
<path d="M558 3648 c-18 -6 -28 -17 -28 -29 0 -10 -4 -19 -9 -19 -13 0 -20
-25 -14 -49 3 -12 13 -21 24 -21 11 0 19 -3 19 -8 0 -4 15 -14 33 -21 17 -8
38 -21 45 -28 22 -21 28 -19 70 32 17 20 18 80 2 100 -7 8 -28 15 -46 15 -19
0 -34 4 -34 10 0 18 -34 28 -62 18z m36 -24 c22 -8 20 -40 -4 -64 -16 -16 -25
-18 -40 -10 -25 14 -25 31 0 58 23 25 22 24 44 16z m90 -40 c11 -28 6 -51 -15
-75 -15 -16 -23 -20 -26 -11 -3 6 -13 12 -24 12 -10 0 -19 2 -19 5 0 8 25 60
35 72 14 17 42 16 49 -3z"/>
<path d="M2550 3500 c0 -5 -6 -10 -12 -10 -18 0 -118 -53 -118 -62 0 -15 25
-8 102 30 81 39 94 52 53 52 -14 0 -25 -4 -25 -10z"/>
<path d="M440 3422 c0 -17 60 -92 74 -92 4 0 20 -14 37 -31 17 -17 33 -28 37
-24 4 4 -3 15 -15 25 -23 18 -32 70 -13 70 6 0 10 6 10 14 0 17 27 28 51 21
14 -5 19 -1 19 14 0 20 -6 21 -100 21 -90 0 -100 -2 -100 -18z m108 -24 c2
-10 -3 -25 -12 -33 -13 -14 -18 -12 -45 14 -35 34 -30 43 19 39 24 -2 36 -9
38 -20z"/>
<path d="M2503 3385 c-18 -19 -33 -41 -33 -49 0 -19 21 -67 37 -83 14 -15 63
-17 63 -3 0 6 -11 10 -25 10 -15 0 -28 7 -32 18 -3 9 -13 25 -21 35 -8 9 -11
17 -5 17 5 0 15 11 21 25 6 14 18 25 27 25 8 0 15 5 15 10 0 11 60 13 75 2 6
-4 18 -19 28 -34 15 -24 15 -28 1 -42 -8 -9 -12 -21 -8 -27 5 -9 11 -6 21 6
16 23 17 49 1 77 -24 41 -36 48 -85 48 -42 0 -52 -5 -80 -35z"/>
<path d="M395 3290 c-11 -17 5 -30 36 -30 16 0 29 -4 29 -10 0 -5 9 -10 21
-10 11 0 32 -9 46 -20 14 -11 21 -20 14 -20 -6 0 -11 -7 -11 -15 0 -8 -9 -15
-20 -15 -11 0 -20 -4 -20 -10 0 -5 14 -10 30 -10 23 0 30 4 30 20 0 11 5 20
10 20 16 0 12 13 -14 43 -13 15 -30 27 -39 27 -8 0 -36 9 -61 20 -27 11 -48
15 -51 10z"/>
<path d="M2538 3194 c-16 -16 -7 -24 27 -24 28 0 35 -4 35 -20 0 -11 5 -20 10
-20 20 0 9 -46 -15 -64 -27 -20 -25 -39 3 -29 9 4 36 26 60 50 24 24 46 43 49
43 13 0 32 31 27 44 -4 12 -20 16 -54 16 -26 0 -67 3 -91 6 -24 3 -47 2 -51
-2z m162 -28 c0 -16 -14 -36 -26 -36 -8 0 -14 -5 -14 -10 0 -6 -8 -5 -20 2
-11 7 -20 21 -20 30 0 14 8 18 40 18 22 0 40 -2 40 -4z"/>
<path d="M330 3140 c0 -5 13 -10 29 -10 16 0 31 -3 33 -7 4 -10 100 -43 122
-43 9 0 16 4 16 9 0 10 -78 41 -103 41 -9 0 -17 5 -17 10 0 6 -18 10 -40 10
-22 0 -40 -4 -40 -10z"/>
<path d="M322 3060 c9 -13 24 -20 45 -20 17 0 35 -4 38 -10 3 -5 15 -10 26
-10 20 0 49 -21 49 -36 0 -3 -10 -15 -22 -25 -25 -23 -18 -35 11 -20 24 13 40
63 23 69 -7 2 -12 10 -12 18 0 8 -10 14 -24 14 -14 0 -28 5 -31 10 -3 6 -22
10 -41 10 -19 0 -34 5 -34 10 0 6 -9 10 -20 10 -18 0 -19 -2 -8 -20z"/>
<path d="M2680 3024 c-19 -7 -43 -13 -53 -13 -24 -1 -57 -33 -39 -39 7 -2 12
-20 12 -42 0 -21 5 -42 10 -45 6 -4 10 15 10 49 0 51 2 56 23 56 33 0 139 35
131 43 -11 10 -55 6 -94 -9z"/>
<path d="M393 2836 c-28 -6 -55 -14 -59 -18 -4 -5 -22 -8 -41 -8 -26 0 -33 -4
-33 -20 0 -21 15 -27 25 -10 3 6 17 10 30 10 13 0 27 5 30 10 10 16 25 1 25
-26 0 -17 -5 -24 -19 -24 -11 0 -23 5 -26 10 -7 12 -45 14 -45 3 1 -9 87 -63
101 -63 5 0 9 -4 9 -10 0 -5 12 -10 28 -10 l27 0 -27 24 c-22 18 -28 32 -28
65 0 34 3 41 19 41 30 0 51 11 51 26 0 8 -3 13 -7 13 -5 -1 -31 -7 -60 -13z"/>
<path d="M2795 2800 c-3 -5 -28 -10 -54 -10 -46 0 -101 -18 -101 -32 0 -12 48
-10 55 2 3 6 33 10 66 10 52 0 59 2 59 20 0 21 -15 27 -25 10z"/>
<path d="M2725 2710 c-3 -5 -24 -10 -46 -10 -22 0 -39 -5 -39 -11 0 -12 76 -8
118 6 47 16 20 -25 -60 -88 -16 -13 -28 -32 -28 -46 0 -20 3 -23 28 -17 15 4
57 12 95 18 37 6 67 15 67 20 0 4 -29 8 -65 8 -36 0 -65 3 -65 8 0 4 12 16 27
27 33 25 83 77 83 88 0 11 -108 8 -115 -3z"/>
<path d="M235 2688 c-2 -7 -6 -33 -9 -58 -3 -25 -6 -52 -8 -60 -2 -8 1 -17 7
-20 5 -3 11 4 13 14 8 39 60 63 77 36 3 -5 31 -10 61 -10 62 0 65 15 4 24
-131 20 -120 15 -120 52 0 33 -17 47 -25 22z"/>
<path d="M340 2510 c-8 -4 -41 -16 -72 -26 -42 -13 -58 -23 -58 -36 0 -11 7
-18 19 -18 11 0 23 -4 26 -10 3 -5 15 -10 26 -10 10 0 19 -4 19 -9 0 -5 11
-12 25 -15 14 -4 25 -11 25 -16 0 -12 37 -13 44 -1 3 5 -5 12 -19 15 -22 6
-25 12 -25 50 0 40 3 46 30 58 17 7 30 16 30 20 0 11 -51 9 -70 -2z m-10 -57
c0 -26 -20 -52 -27 -35 -2 6 -13 12 -24 12 -22 0 -24 6 -6 25 18 21 57 19 57
-2z"/>
<path d="M2682 2480 c-21 -34 -15 -88 13 -115 13 -14 29 -25 34 -25 22 0 51
36 51 62 0 16 5 28 10 28 6 0 10 11 10 25 0 26 7 29 34 19 21 -8 21 -62 -1
-86 -22 -25 -8 -36 17 -13 28 25 28 100 1 115 -39 20 -66 12 -79 -23 -7 -18
-12 -41 -12 -49 0 -9 -7 -24 -15 -32 -13 -13 -20 -13 -35 -3 -27 16 -27 72 0
89 25 16 26 28 2 28 -9 0 -23 -9 -30 -20z"/>
<path d="M207 2314 c-3 -4 -2 -15 4 -25 11 -21 45 -26 51 -8 2 6 34 13 71 16
36 3 64 10 61 14 -6 10 -177 12 -187 3z"/>
<path d="M2850 2295 c0 -19 -7 -26 -37 -34 -21 -6 -59 -11 -85 -11 -27 0 -48
-4 -48 -10 0 -6 35 -10 85 -10 78 0 85 -2 85 -20 0 -11 5 -20 10 -20 6 0 10
28 10 65 0 37 -4 65 -10 65 -5 0 -10 -11 -10 -25z"/>
<path d="M280 2260 c0 -5 11 -10 25 -10 14 0 25 5 25 10 0 6 -11 10 -25 10
-14 0 -25 -4 -25 -10z"/>
<path d="M345 2230 c-4 -13 -18 -23 -36 -27 -16 -3 -29 -9 -29 -14 0 -4 -15
-9 -32 -11 -26 -2 -34 -8 -36 -27 -3 -22 -1 -23 28 -17 18 3 61 6 96 6 36 0
64 4 64 10 0 6 -27 10 -60 10 -33 0 -60 4 -60 10 0 6 10 10 23 10 13 0 32 7
43 15 10 8 26 15 36 15 11 0 15 6 11 20 -7 26 -40 26 -48 0z"/>
<path d="M2690 2114 c0 -16 35 -24 113 -24 51 0 68 3 65 13 -6 16 -178 27
-178 11z"/>
<path d="M360 2070 c-15 -20 -60 -28 -60 -10 0 15 -66 12 -79 -4 -7 -9 -11
-40 -9 -78 3 -62 4 -63 33 -67 50 -5 165 19 165 35 0 11 -9 13 -40 8 -39 -6
-40 -6 -40 23 0 22 10 38 40 64 22 19 40 37 40 42 0 15 -36 6 -50 -13z m-76
-26 c12 -4 16 -20 16 -55 0 -47 -1 -49 -29 -49 -30 0 -41 14 -41 55 0 49 16
64 54 49z"/>
<path d="M2848 2028 c-3 -22 -8 -23 -90 -26 -95 -3 -123 -22 -33 -22 30 0 63
-4 73 -9 9 -5 25 -12 35 -15 10 -3 17 -15 17 -31 0 -15 4 -24 10 -20 13 8 13
145 1 145 -5 0 -11 -10 -13 -22z"/>
<path d="M410 1815 c0 -48 -2 -55 -20 -55 -11 0 -23 0 -27 -1 -5 0 -13 21 -20
48 -11 48 -15 42 -18 -27 0 -20 -6 -26 -32 -28 -31 -3 -32 -2 -35 43 -4 61
-24 53 -21 -10 3 -51 27 -91 41 -68 5 7 38 13 82 15 71 3 75 4 78 27 5 35 -8
111 -19 111 -5 0 -9 -25 -9 -55z"/>
<path d="M2658 1845 c-29 -39 -16 -115 21 -115 6 0 11 -4 11 -10 0 -6 30 -10
70 -10 40 0 70 4 70 10 0 6 -27 10 -60 10 -33 0 -60 4 -60 10 0 6 -7 10 -15
10 -25 0 -38 37 -23 68 13 26 15 27 91 24 46 -2 77 0 77 6 0 16 -27 22 -98 22
-59 -1 -69 -3 -84 -25z"/>
<path d="M440 1647 c0 -24 5 -48 11 -54 9 -9 5 -14 -14 -18 -47 -12 -67 2 -67
46 0 21 -4 39 -10 39 -5 0 -10 -25 -10 -55 0 -52 -1 -55 -25 -55 -16 0 -25 6
-25 15 0 8 -4 15 -10 15 -5 0 -10 18 -10 40 0 22 -4 40 -10 40 -5 0 -10 -18
-10 -40 0 -22 5 -40 10 -40 6 0 10 -16 10 -35 0 -34 12 -46 25 -25 3 6 28 10
55 10 27 0 52 5 55 10 3 6 19 10 36 10 24 0 29 4 29 25 0 14 -4 25 -10 25 -5
0 -10 20 -10 45 0 25 -4 45 -10 45 -5 0 -10 -19 -10 -43z"/>
<path d="M2800 1630 c0 -29 -2 -30 -44 -30 -25 0 -48 5 -51 10 -3 6 -24 10
-46 10 -21 0 -39 -4 -39 -10 0 -5 16 -10 35 -10 19 0 35 -4 35 -10 0 -5 13
-10 29 -10 47 0 61 -10 61 -40 0 -16 5 -32 10 -35 6 -4 10 8 10 29 0 19 5 38
10 41 6 3 10 24 10 46 0 21 -4 39 -10 39 -5 0 -10 -13 -10 -30z"/>
<path d="M2594 1502 c-6 -4 -16 -25 -22 -47 -6 -22 -14 -51 -18 -64 -5 -18 -4
-23 7 -19 7 2 20 27 28 54 8 27 16 51 18 53 1 2 16 -2 33 -9 34 -14 36 -26 16
-75 -8 -19 -11 -37 -6 -40 10 -6 40 50 40 75 0 25 9 30 37 17 18 -8 23 -17 20
-31 -17 -76 -19 -86 -10 -86 9 0 43 93 43 117 0 9 -58 30 -125 46 -11 3 -27 7
-35 11 -8 3 -20 2 -26 -2z"/>
<path d="M300 1474 c0 -12 73 -34 114 -34 56 0 65 -13 26 -36 -16 -10 -30 -22
-30 -26 0 -4 -7 -8 -15 -8 -8 0 -15 -4 -15 -10 0 -5 -5 -10 -11 -10 -13 0 -43
-29 -36 -36 6 -7 57 17 57 28 0 4 5 8 11 8 6 0 16 6 24 13 12 11 57 45 77 58
5 3 6 13 2 22 -5 14 -20 17 -80 17 -43 0 -74 4 -74 10 0 6 -11 10 -25 10 -14
0 -25 -2 -25 -6z"/>
<path d="M2240 766 c0 -13 -6 -27 -12 -30 -10 -5 -10 -7 0 -12 6 -3 12 -14 12
-25 0 -43 94 -36 111 9 l11 27 18 -23 c25 -30 19 -56 -13 -60 -33 -4 -36 -22
-4 -22 27 0 57 28 57 53 0 9 -20 37 -45 62 -40 40 -51 45 -90 45 -41 0 -45 -2
-45 -24z m74 -2 c21 -8 21 -60 0 -68 -38 -15 -68 13 -57 53 5 21 27 27 57 15z"/>
<path d="M792 760 c-12 -11 -24 -20 -27 -20 -3 0 -22 -16 -42 -35 -20 -19 -42
-35 -48 -35 -5 0 -4 -4 4 -9 10 -7 27 1 58 26 24 20 46 33 49 30 7 -6 -33 -77
-49 -88 -17 -12 -2 -44 18 -41 28 5 32 12 15 22 -12 8 -11 14 8 39 12 17 22
35 22 41 0 5 5 10 10 10 6 0 10 7 10 15 0 8 5 15 10 15 6 0 10 11 10 25 0 30
-19 32 -48 5z"/>
<path d="M2170 640 c0 -30 14 -40 24 -17 5 10 7 10 12 0 3 -7 12 -13 20 -13 8
0 14 -5 14 -11 0 -12 50 -59 63 -59 12 0 8 19 -8 32 -9 7 -36 32 -62 56 -25
23 -50 42 -55 42 -4 0 -8 -13 -8 -30z"/>
<path d="M888 653 c-26 -4 -41 -23 -18 -23 6 0 10 -4 10 -10 0 -5 -4 -10 -10
-10 -10 0 -90 -75 -90 -85 0 -17 33 0 73 38 24 23 53 47 63 53 20 12 26 36 9
39 -5 1 -22 0 -37 -2z"/>
<path d="M795 620 c-3 -6 5 -10 19 -10 14 0 28 5 31 10 3 6 -5 10 -19 10 -14
0 -28 -4 -31 -10z"/>
<path d="M933 605 c-13 -13 -23 -27 -23 -31 0 -4 -8 -14 -18 -23 -10 -9 -27
-28 -37 -44 -19 -30 -20 -28 31 -84 30 -32 82 -19 127 31 9 10 20 16 25 11 4
-4 1 -10 -5 -12 -7 -3 -13 -13 -13 -24 0 -10 -3 -19 -8 -19 -10 0 -36 -60 -29
-67 9 -8 37 23 37 41 0 9 4 16 9 16 5 0 11 9 14 21 3 12 10 18 16 14 14 -8 14
-72 1 -80 -15 -9 -12 -55 4 -55 7 0 27 14 44 30 18 17 36 30 41 30 5 0 11 6
14 13 2 6 8 9 12 4 5 -4 3 -13 -3 -19 -7 -7 -12 -18 -12 -26 0 -7 -7 -20 -15
-28 -8 -9 -15 -20 -15 -25 0 -5 7 -9 15 -9 8 0 15 7 15 15 0 8 5 15 10 15 6 0
10 9 10 20 0 11 4 20 8 20 5 0 14 10 20 23 l11 22 0 -22 c1 -12 -3 -24 -8 -27
-5 -3 -11 -20 -13 -38 -3 -18 -8 -40 -12 -50 -6 -12 0 -18 23 -23 17 -4 33
-11 36 -16 10 -16 67 -10 81 8 7 10 14 35 14 55 0 20 5 40 10 43 6 3 10 19 10
34 0 29 -4 32 -94 69 -56 23 -79 20 -96 -14 -8 -13 -17 -24 -22 -24 -5 0 -18
-9 -30 -20 -23 -21 -48 -27 -48 -10 0 6 5 10 10 10 6 0 10 20 10 45 0 25 6 54
12 65 11 17 9 23 -16 46 l-28 27 -53 -57 c-60 -63 -94 -73 -120 -32 -15 22
-14 27 3 58 11 18 33 48 51 65 29 30 40 54 24 52 -5 0 -18 -11 -30 -24z m397
-240 c17 -21 5 -45 -24 -45 -40 0 -56 11 -56 36 0 21 5 24 34 24 18 0 39 -7
46 -15z m-47 -67 c47 -22 45 -68 -2 -68 -42 0 -65 22 -57 53 7 30 19 33 59 15z"/>
<path d="M2053 566 c-6 -7 -13 -26 -15 -42 -3 -26 -7 -28 -47 -31 -56 -4 -71
-17 -71 -62 -1 -33 -2 -34 -14 -18 -10 13 -25 17 -53 15 l-38 -3 -3 -54 c-4
-62 21 -121 50 -121 22 0 24 16 3 24 -8 3 -15 12 -15 21 0 8 -4 15 -10 15 -5
0 -10 23 -10 51 0 49 1 50 28 47 16 -2 31 -12 37 -25 5 -13 13 -23 17 -23 13
0 9 -85 -4 -98 -9 -9 -7 -12 10 -12 29 0 39 54 18 103 -9 22 -11 39 -5 42 5 4
9 -3 9 -14 0 -12 6 -21 13 -21 7 0 19 -9 27 -20 8 -11 26 -20 41 -20 51 0 59
9 59 61 0 46 11 62 25 39 9 -15 74 -12 91 4 16 17 19 66 4 66 -5 0 -10 5 -10
10 0 6 -16 26 -35 45 -36 37 -80 46 -102 21z m99 -47 c49 -52 52 -89 8 -89
-42 0 -100 58 -100 100 0 47 43 42 92 -11z m-127 -70 c29 -26 35 -38 35 -70 0
-34 -3 -39 -24 -39 -15 0 -34 13 -52 36 -38 47 -47 81 -26 94 25 14 28 13 67
-21z"/>
<path d="M1738 382 c-18 -3 -27 -52 -10 -52 5 0 14 -11 22 -24 11 -21 10 -27
-3 -40 -17 -18 -47 -21 -47 -7 0 6 5 13 10 16 6 3 10 15 10 26 0 10 -4 19 -10
19 -5 0 -10 -11 -10 -25 0 -14 -4 -25 -10 -25 -5 0 -10 -9 -10 -20 0 -16 7
-20 30 -20 17 0 30 5 30 10 0 18 18 11 25 -10 8 -25 25 -26 25 -1 0 11 6 21
12 23 9 3 8 9 -5 22 -9 10 -20 29 -23 44 -12 56 -19 68 -36 64z"/>
<path d="M1430 340 c0 -11 -3 -20 -8 -20 -8 0 -15 -12 -47 -79 -11 -22 -23
-41 -27 -41 -5 0 -8 -4 -8 -10 0 -21 39 -10 42 13 2 16 11 23 32 25 50 6 73
-5 79 -38 8 -37 27 -40 27 -4 0 27 -24 113 -43 152 -13 28 -47 30 -47 2z m40
-55 c0 -31 -3 -35 -25 -35 -23 0 -25 3 -19 28 7 26 20 42 37 42 4 0 7 -16 7
-35z"/>
<path d="M1547 353 c-3 -5 -1 -28 3 -53 5 -25 9 -64 10 -87 0 -23 5 -45 10
-48 17 -10 13 170 -4 184 -8 7 -16 8 -19 4z"/>
</g>
</svg>
